<mxfile host="Electron" agent="Mozilla/5.0 (Windows NT 10.0; Win64; x64) AppleWebKit/537.36 (KHTML, like Gecko) draw.io/24.7.17 Chrome/128.0.6613.36 Electron/32.0.1 Safari/537.36" version="24.7.17">
  <diagram name="Page-1" id="2YBvvXClWsGukQMizWep">
    <mxGraphModel dx="1195" dy="703" grid="1" gridSize="10" guides="1" tooltips="1" connect="1" arrows="1" fold="1" page="1" pageScale="1" pageWidth="850" pageHeight="1100" math="0" shadow="0">
      <root>
        <mxCell id="0" />
        <mxCell id="1" parent="0" />
        <mxCell id="aM9ryv3xv72pqoxQDRHE-1" value=":DBHandler" style="shape=umlLifeline;perimeter=lifelinePerimeter;whiteSpace=wrap;html=1;container=0;dropTarget=0;collapsible=0;recursiveResize=0;outlineConnect=0;portConstraint=eastwest;newEdgeStyle={&quot;edgeStyle&quot;:&quot;elbowEdgeStyle&quot;,&quot;elbow&quot;:&quot;vertical&quot;,&quot;curved&quot;:0,&quot;rounded&quot;:0};" parent="1" vertex="1">
          <mxGeometry x="749" y="121" width="100" height="529" as="geometry" />
        </mxCell>
        <mxCell id="2SM_bckRGzznBgXp0BpI-1" value="Remove song from playlist" style="shape=umlFrame;whiteSpace=wrap;html=1;pointerEvents=0;width=260;height=30;" vertex="1" parent="1">
          <mxGeometry x="20" y="50" width="960" height="610" as="geometry" />
        </mxCell>
        <mxCell id="2SM_bckRGzznBgXp0BpI-3" value=":PlaylistHandler" style="shape=umlLifeline;perimeter=lifelinePerimeter;whiteSpace=wrap;html=1;container=0;dropTarget=0;collapsible=0;recursiveResize=0;outlineConnect=0;portConstraint=eastwest;newEdgeStyle={&quot;edgeStyle&quot;:&quot;elbowEdgeStyle&quot;,&quot;elbow&quot;:&quot;vertical&quot;,&quot;curved&quot;:0,&quot;rounded&quot;:0};" vertex="1" parent="1">
          <mxGeometry x="458" y="121" width="100" height="529" as="geometry" />
        </mxCell>
        <mxCell id="2SM_bckRGzznBgXp0BpI-4" value="" style="html=1;points=[];perimeter=orthogonalPerimeter;outlineConnect=0;targetShapes=umlLifeline;portConstraint=eastwest;newEdgeStyle={&quot;edgeStyle&quot;:&quot;elbowEdgeStyle&quot;,&quot;elbow&quot;:&quot;vertical&quot;,&quot;curved&quot;:0,&quot;rounded&quot;:0};" vertex="1" parent="2SM_bckRGzznBgXp0BpI-3">
          <mxGeometry x="45" y="130" width="10" height="210" as="geometry" />
        </mxCell>
        <mxCell id="2SM_bckRGzznBgXp0BpI-7" value=":AccountHandler" style="shape=umlLifeline;perimeter=lifelinePerimeter;whiteSpace=wrap;html=1;container=0;dropTarget=0;collapsible=0;recursiveResize=0;outlineConnect=0;portConstraint=eastwest;newEdgeStyle={&quot;edgeStyle&quot;:&quot;elbowEdgeStyle&quot;,&quot;elbow&quot;:&quot;vertical&quot;,&quot;curved&quot;:0,&quot;rounded&quot;:0};" vertex="1" parent="1">
          <mxGeometry x="580" y="121" width="100" height="529" as="geometry" />
        </mxCell>
        <mxCell id="2SM_bckRGzznBgXp0BpI-8" value="" style="html=1;points=[];perimeter=orthogonalPerimeter;outlineConnect=0;targetShapes=umlLifeline;portConstraint=eastwest;newEdgeStyle={&quot;edgeStyle&quot;:&quot;elbowEdgeStyle&quot;,&quot;elbow&quot;:&quot;vertical&quot;,&quot;curved&quot;:0,&quot;rounded&quot;:0};" vertex="1" parent="2SM_bckRGzznBgXp0BpI-7">
          <mxGeometry x="45" y="150" width="10" height="180" as="geometry" />
        </mxCell>
        <mxCell id="2SM_bckRGzznBgXp0BpI-9" value="removeSong(Song song)" style="html=1;verticalAlign=bottom;endArrow=block;edgeStyle=elbowEdgeStyle;elbow=vertical;curved=0;rounded=0;" edge="1" parent="1">
          <mxGeometry x="-0.0909" y="3" relative="1" as="geometry">
            <mxPoint x="513" y="273" as="sourcePoint" />
            <Array as="points">
              <mxPoint x="612" y="273" />
              <mxPoint x="572" y="263" />
            </Array>
            <mxPoint x="623" y="273" as="targetPoint" />
            <mxPoint as="offset" />
          </mxGeometry>
        </mxCell>
        <mxCell id="2SM_bckRGzznBgXp0BpI-15" value="" style="shape=umlLifeline;perimeter=lifelinePerimeter;whiteSpace=wrap;html=1;container=1;dropTarget=0;collapsible=0;recursiveResize=0;outlineConnect=0;portConstraint=eastwest;newEdgeStyle={&quot;curved&quot;:0,&quot;rounded&quot;:0};participant=umlActor;" vertex="1" parent="1">
          <mxGeometry x="60" y="120" width="20" height="520" as="geometry" />
        </mxCell>
        <mxCell id="2SM_bckRGzznBgXp0BpI-16" value="" style="html=1;points=[[0,0,0,0,5],[0,1,0,0,-5],[1,0,0,0,5],[1,1,0,0,-5]];perimeter=orthogonalPerimeter;outlineConnect=0;targetShapes=umlLifeline;portConstraint=eastwest;newEdgeStyle={&quot;curved&quot;:0,&quot;rounded&quot;:0};" vertex="1" parent="2SM_bckRGzznBgXp0BpI-15">
          <mxGeometry x="5" y="80" width="10" height="280" as="geometry" />
        </mxCell>
        <mxCell id="2SM_bckRGzznBgXp0BpI-18" value=":Controller" style="shape=umlLifeline;perimeter=lifelinePerimeter;whiteSpace=wrap;html=1;container=0;dropTarget=0;collapsible=0;recursiveResize=0;outlineConnect=0;portConstraint=eastwest;newEdgeStyle={&quot;edgeStyle&quot;:&quot;elbowEdgeStyle&quot;,&quot;elbow&quot;:&quot;vertical&quot;,&quot;curved&quot;:0,&quot;rounded&quot;:0};" vertex="1" parent="1">
          <mxGeometry x="350" y="121" width="100" height="529" as="geometry" />
        </mxCell>
        <mxCell id="2SM_bckRGzznBgXp0BpI-19" value="" style="html=1;points=[];perimeter=orthogonalPerimeter;outlineConnect=0;targetShapes=umlLifeline;portConstraint=eastwest;newEdgeStyle={&quot;edgeStyle&quot;:&quot;elbowEdgeStyle&quot;,&quot;elbow&quot;:&quot;vertical&quot;,&quot;curved&quot;:0,&quot;rounded&quot;:0};" vertex="1" parent="2SM_bckRGzznBgXp0BpI-18">
          <mxGeometry x="45" y="110" width="10" height="240" as="geometry" />
        </mxCell>
        <mxCell id="2SM_bckRGzznBgXp0BpI-21" value="" style="html=1;verticalAlign=bottom;endArrow=block;edgeStyle=elbowEdgeStyle;elbow=vertical;curved=0;rounded=0;" edge="1" parent="1">
          <mxGeometry relative="1" as="geometry">
            <mxPoint x="399.66666666666674" y="251" as="sourcePoint" />
            <Array as="points">
              <mxPoint x="411.5" y="251" />
              <mxPoint x="611.5" y="241" />
            </Array>
            <mxPoint x="501.5" y="251" as="targetPoint" />
          </mxGeometry>
        </mxCell>
        <mxCell id="2SM_bckRGzznBgXp0BpI-28" value="" style="endArrow=classic;html=1;rounded=0;" edge="1" parent="1">
          <mxGeometry width="50" height="50" relative="1" as="geometry">
            <mxPoint x="76" y="199.99714285714288" as="sourcePoint" />
            <mxPoint x="206" y="200" as="targetPoint" />
          </mxGeometry>
        </mxCell>
        <mxCell id="2SM_bckRGzznBgXp0BpI-29" value="Select remove song (song)" style="text;html=1;align=center;verticalAlign=middle;resizable=0;points=[];autosize=1;strokeColor=none;fillColor=none;" vertex="1" parent="1">
          <mxGeometry x="55" y="172" width="170" height="30" as="geometry" />
        </mxCell>
        <mxCell id="2SM_bckRGzznBgXp0BpI-32" value="" style="endArrow=classic;html=1;rounded=0;" edge="1" parent="1" source="aM9ryv3xv72pqoxQDRHE-2" target="aM9ryv3xv72pqoxQDRHE-1">
          <mxGeometry width="50" height="50" relative="1" as="geometry">
            <mxPoint x="474.9966666666668" y="382" as="sourcePoint" />
            <mxPoint x="615.33" y="382" as="targetPoint" />
          </mxGeometry>
        </mxCell>
        <mxCell id="2SM_bckRGzznBgXp0BpI-34" value=":DB" style="shape=umlLifeline;perimeter=lifelinePerimeter;whiteSpace=wrap;html=1;container=0;dropTarget=0;collapsible=0;recursiveResize=0;outlineConnect=0;portConstraint=eastwest;newEdgeStyle={&quot;edgeStyle&quot;:&quot;elbowEdgeStyle&quot;,&quot;elbow&quot;:&quot;vertical&quot;,&quot;curved&quot;:0,&quot;rounded&quot;:0};" vertex="1" parent="1">
          <mxGeometry x="869" y="121" width="100" height="529" as="geometry" />
        </mxCell>
        <mxCell id="2SM_bckRGzznBgXp0BpI-12" value="Confirmation mssg" style="html=1;verticalAlign=bottom;endArrow=open;dashed=1;endSize=8;edgeStyle=elbowEdgeStyle;elbow=horizontal;curved=0;rounded=0;" edge="1" parent="2SM_bckRGzznBgXp0BpI-34">
          <mxGeometry x="-0.006" relative="1" as="geometry">
            <mxPoint x="-65" y="310.08" as="targetPoint" />
            <Array as="points" />
            <mxPoint x="45" y="310.08" as="sourcePoint" />
            <mxPoint as="offset" />
          </mxGeometry>
        </mxCell>
        <mxCell id="2SM_bckRGzznBgXp0BpI-35" value="" style="html=1;points=[];perimeter=orthogonalPerimeter;outlineConnect=0;targetShapes=umlLifeline;portConstraint=eastwest;newEdgeStyle={&quot;edgeStyle&quot;:&quot;elbowEdgeStyle&quot;,&quot;elbow&quot;:&quot;vertical&quot;,&quot;curved&quot;:0,&quot;rounded&quot;:0};" vertex="1" parent="2SM_bckRGzznBgXp0BpI-34">
          <mxGeometry x="45" y="269.08" width="10" height="40" as="geometry" />
        </mxCell>
        <mxCell id="2SM_bckRGzznBgXp0BpI-36" value="Query" style="html=1;verticalAlign=bottom;endArrow=block;edgeStyle=elbowEdgeStyle;elbow=vertical;curved=0;rounded=0;exitX=0.6;exitY=0.669;exitDx=0;exitDy=0;exitPerimeter=0;" edge="1" parent="2SM_bckRGzznBgXp0BpI-34" source="aM9ryv3xv72pqoxQDRHE-2">
          <mxGeometry relative="1" as="geometry">
            <mxPoint x="-60" y="270.08" as="sourcePoint" />
            <Array as="points">
              <mxPoint x="5" y="269.66" />
              <mxPoint x="-35" y="259.66" />
            </Array>
            <mxPoint x="40" y="270.08" as="targetPoint" />
            <mxPoint as="offset" />
          </mxGeometry>
        </mxCell>
        <mxCell id="2SM_bckRGzznBgXp0BpI-37" value="Confirmation mssg" style="html=1;verticalAlign=bottom;endArrow=open;dashed=1;endSize=8;edgeStyle=elbowEdgeStyle;elbow=horizontal;curved=0;rounded=0;" edge="1" parent="1" source="aM9ryv3xv72pqoxQDRHE-2">
          <mxGeometry x="-0.006" relative="1" as="geometry">
            <mxPoint x="640" y="440" as="targetPoint" />
            <Array as="points">
              <mxPoint x="758" y="435.58" />
            </Array>
            <mxPoint x="833" y="435.58" as="sourcePoint" />
            <mxPoint as="offset" />
          </mxGeometry>
        </mxCell>
        <mxCell id="2SM_bckRGzznBgXp0BpI-40" value="Confirmation mssg" style="endArrow=open;endSize=12;dashed=1;html=1;rounded=0;" edge="1" parent="1">
          <mxGeometry x="-0.0268" y="-12" width="160" relative="1" as="geometry">
            <mxPoint x="496" y="461" as="sourcePoint" />
            <mxPoint x="410" y="461" as="targetPoint" />
            <mxPoint as="offset" />
          </mxGeometry>
        </mxCell>
        <mxCell id="2SM_bckRGzznBgXp0BpI-42" value="Confirmation mssg" style="endArrow=open;endSize=12;dashed=1;html=1;rounded=0;" edge="1" parent="1" source="2SM_bckRGzznBgXp0BpI-48">
          <mxGeometry x="-0.0268" y="-12" width="160" relative="1" as="geometry">
            <mxPoint x="160" y="480" as="sourcePoint" />
            <mxPoint x="79" y="480" as="targetPoint" />
            <mxPoint as="offset" />
          </mxGeometry>
        </mxCell>
        <mxCell id="aM9ryv3xv72pqoxQDRHE-2" value="" style="html=1;points=[];perimeter=orthogonalPerimeter;outlineConnect=0;targetShapes=umlLifeline;portConstraint=eastwest;newEdgeStyle={&quot;edgeStyle&quot;:&quot;elbowEdgeStyle&quot;,&quot;elbow&quot;:&quot;vertical&quot;,&quot;curved&quot;:0,&quot;rounded&quot;:0};" parent="1" vertex="1">
          <mxGeometry x="794" y="290" width="10" height="151" as="geometry" />
        </mxCell>
        <mxCell id="2SM_bckRGzznBgXp0BpI-48" value=":UI" style="shape=umlLifeline;perimeter=lifelinePerimeter;whiteSpace=wrap;html=1;container=0;dropTarget=0;collapsible=0;recursiveResize=0;outlineConnect=0;portConstraint=eastwest;newEdgeStyle={&quot;edgeStyle&quot;:&quot;elbowEdgeStyle&quot;,&quot;elbow&quot;:&quot;vertical&quot;,&quot;curved&quot;:0,&quot;rounded&quot;:0};" vertex="1" parent="1">
          <mxGeometry x="160" y="121" width="100" height="529" as="geometry" />
        </mxCell>
        <mxCell id="2SM_bckRGzznBgXp0BpI-49" value="" style="html=1;points=[];perimeter=orthogonalPerimeter;outlineConnect=0;targetShapes=umlLifeline;portConstraint=eastwest;newEdgeStyle={&quot;edgeStyle&quot;:&quot;elbowEdgeStyle&quot;,&quot;elbow&quot;:&quot;vertical&quot;,&quot;curved&quot;:0,&quot;rounded&quot;:0};" vertex="1" parent="2SM_bckRGzznBgXp0BpI-48">
          <mxGeometry x="45" y="80" width="10" height="280" as="geometry" />
        </mxCell>
        <mxCell id="2SM_bckRGzznBgXp0BpI-50" value="Remove song (song)" style="text;html=1;align=center;verticalAlign=middle;resizable=0;points=[];autosize=1;strokeColor=none;fillColor=none;" vertex="1" parent="1">
          <mxGeometry x="390" y="222" width="130" height="30" as="geometry" />
        </mxCell>
        <mxCell id="2SM_bckRGzznBgXp0BpI-52" value="" style="html=1;verticalAlign=bottom;endArrow=block;edgeStyle=elbowEdgeStyle;elbow=vertical;curved=0;rounded=0;" edge="1" parent="1">
          <mxGeometry relative="1" as="geometry">
            <mxPoint x="215" y="212" as="sourcePoint" />
            <Array as="points">
              <mxPoint x="390" y="232" />
              <mxPoint x="490" y="202" />
            </Array>
            <mxPoint x="395" y="232" as="targetPoint" />
          </mxGeometry>
        </mxCell>
        <mxCell id="2SM_bckRGzznBgXp0BpI-53" value="Remove song request (Song song)" style="text;html=1;align=center;verticalAlign=middle;resizable=0;points=[];autosize=1;strokeColor=none;fillColor=none;" vertex="1" parent="1">
          <mxGeometry x="200" y="202" width="210" height="30" as="geometry" />
        </mxCell>
        <mxCell id="2SM_bckRGzznBgXp0BpI-55" value="Confirmation mssg" style="endArrow=open;endSize=12;dashed=1;html=1;rounded=0;" edge="1" parent="1">
          <mxGeometry x="-0.0257" y="-12" width="160" relative="1" as="geometry">
            <mxPoint x="391.33" y="470" as="sourcePoint" />
            <mxPoint x="209.99666666666675" y="470" as="targetPoint" />
            <mxPoint as="offset" />
          </mxGeometry>
        </mxCell>
        <mxCell id="2SM_bckRGzznBgXp0BpI-59" value="" style="html=1;verticalAlign=bottom;endArrow=block;edgeStyle=elbowEdgeStyle;elbow=vertical;curved=0;rounded=0;" edge="1" parent="1" source="2SM_bckRGzznBgXp0BpI-7">
          <mxGeometry x="0.1111" y="5" relative="1" as="geometry">
            <mxPoint x="680" y="290" as="sourcePoint" />
            <Array as="points">
              <mxPoint x="783" y="290" />
              <mxPoint x="743" y="280" />
            </Array>
            <mxPoint x="794" y="290" as="targetPoint" />
            <mxPoint as="offset" />
          </mxGeometry>
        </mxCell>
        <mxCell id="2SM_bckRGzznBgXp0BpI-60" value="removeFromPlaylist(String&amp;nbsp;&lt;div&gt;username,&lt;span style=&quot;background-color: initial;&quot;&gt;Song song)&lt;/span&gt;&lt;/div&gt;" style="text;html=1;align=center;verticalAlign=middle;resizable=0;points=[];autosize=1;strokeColor=none;fillColor=none;" vertex="1" parent="1">
          <mxGeometry x="632" y="251" width="170" height="40" as="geometry" />
        </mxCell>
        <mxCell id="2SM_bckRGzznBgXp0BpI-61" value="Confirmation mssg" style="html=1;verticalAlign=bottom;endArrow=open;dashed=1;endSize=8;edgeStyle=elbowEdgeStyle;elbow=horizontal;curved=0;rounded=0;" edge="1" parent="1">
          <mxGeometry x="0.2374" relative="1" as="geometry">
            <mxPoint x="520" y="454" as="targetPoint" />
            <Array as="points">
              <mxPoint x="638" y="449.58" />
            </Array>
            <mxPoint x="630" y="460" as="sourcePoint" />
            <mxPoint as="offset" />
          </mxGeometry>
        </mxCell>
      </root>
    </mxGraphModel>
  </diagram>
</mxfile>
